<?xml version="1.0" encoding="utf-8"?>
<svg width="1442" height="183" fill="none" viewBox="0 0 1442 183" xmlns="http://www.w3.org/2000/svg">
  <path fill="url(#paint0_linear)" fill-rule="evenodd" d="M720.605 0C459.696 0 214.221 66.1353 0 182.57V183H1442C1227.59 66.298 981.835 0 720.605 0ZM976.797 77.9056C977.007 76.5262 978.995 76.5262 979.205 77.9056L980.448 86.0678C980.528 86.5946 980.941 87.008 981.468 87.0883L989.63 88.3327C991.009 88.543 991.009 90.5303 989.63 90.7406L981.468 91.9849C980.941 92.0653 980.528 92.4787 980.448 93.0055L979.205 101.168C978.995 102.547 977.007 102.547 976.797 101.168L975.554 93.0055C975.473 92.4787 975.06 92.0653 974.533 91.9849L966.371 90.7406C964.992 90.5303 964.992 88.543 966.371 88.3327L974.533 87.0883C975.06 87.008 975.473 86.5946 975.554 86.0678L976.797 77.9056ZM465.486 41.9056C465.276 40.5262 463.288 40.5262 463.078 41.9056L461.835 50.0678C461.755 50.5946 461.341 51.008 460.815 51.0883L452.653 52.3327C451.274 52.543 451.274 54.5303 452.653 54.7406L460.815 55.9849C461.341 56.0653 461.755 56.4787 461.835 57.0055L463.078 65.1677C463.288 66.547 465.276 66.547 465.486 65.1677L466.729 57.0055C466.809 56.4787 467.223 56.0653 467.75 55.9849L475.911 54.7406C477.29 54.5303 477.29 52.543 475.911 52.3327L467.75 51.0883C467.223 51.008 466.809 50.5946 466.729 50.0678L465.486 41.9056ZM318.121 94.9056C318.331 93.5263 320.319 93.5263 320.529 94.9056L323.617 115.185C323.698 115.712 324.111 116.125 324.638 116.205L344.91 119.296C346.289 119.506 346.289 121.494 344.91 121.704L324.638 124.795C324.111 124.875 323.698 125.288 323.617 125.815L320.529 146.094C320.319 147.474 318.331 147.474 318.121 146.094L315.033 125.815C314.952 125.288 314.539 124.875 314.012 124.795L293.74 121.704C292.361 121.494 292.361 119.506 293.74 119.296L314.012 116.205C314.539 116.125 314.952 115.712 315.033 115.185L318.121 94.9056ZM1043.13 47.9056C1042.92 46.5263 1040.94 46.5263 1040.72 47.9056L1039.62 55.1682C1039.54 55.695 1039.13 56.1085 1038.6 56.1888L1031.34 57.2961C1029.96 57.5063 1029.96 59.4937 1031.34 59.7039L1038.6 60.8112C1039.13 60.8915 1039.54 61.305 1039.62 61.8318L1040.72 69.0944C1040.94 70.4737 1042.92 70.4737 1043.13 69.0944L1044.24 61.8318C1044.32 61.305 1044.73 60.8915 1045.26 60.8112L1052.52 59.7039C1053.9 59.4937 1053.9 57.5063 1052.52 57.2961L1045.26 56.1888C1044.73 56.1085 1044.32 55.695 1044.24 55.1682L1043.13 47.9056ZM1097.69 99.9056C1097.9 98.5263 1099.89 98.5262 1100.1 99.9056L1102.53 115.846C1102.61 116.373 1103.02 116.786 1103.55 116.866L1119.49 119.296C1120.86 119.506 1120.86 121.494 1119.49 121.704L1103.55 124.134C1103.02 124.214 1102.61 124.627 1102.53 125.154L1100.1 141.094C1099.89 142.474 1097.9 142.474 1097.69 141.094L1095.27 125.154C1095.19 124.627 1094.77 124.214 1094.25 124.134L1078.31 121.704C1076.93 121.494 1076.93 119.506 1078.31 119.296L1094.25 116.866C1094.77 116.786 1095.19 116.373 1095.27 115.846L1097.69 99.9056Z" clip-rule="evenodd" style="paint-order: fill; fill-rule: evenodd;"/>
  <defs>
    <linearGradient id="paint0_linear" x1="721" x2="721" y1="0" y2="183" gradientUnits="userSpaceOnUse">
      <stop stop-opacity=".43" style="stop-color: rgb(236, 255, 60);"/>
      <stop offset="0.526" stop-opacity=".21" style="stop-color: rgb(215, 150, 0);"/>
      <stop offset="1" stop-opacity="0" style="stop-color: rgb(255, 255, 255);"/>
    </linearGradient>
  </defs>
  <g transform="matrix(0.169372, 0, 0, 0.169372, 277.612488, 72.874634)" style="">
    <defs xmlns="http://www.w3.org/2000/svg">
      <linearGradient id="linear-gradient" x1="333.464" y1="429.688" x2="188.194" y2="164.327" gradientUnits="userSpaceOnUse">
        <stop stop-opacity="1" stop-color="#f2ea76" offset="0"/>
        <stop stop-opacity="1" stop-color="#f2a127" offset="0.995"/>
      </linearGradient>
    </defs>
    <title xmlns="http://www.w3.org/2000/svg">fresh egg</title>
    <path xmlns="http://www.w3.org/2000/svg" d="M409.749,212.342C371.291,74.7,301.225,39.655,270.78,30.8a52.916,52.916,0,0,0-29.56,0c-30.445,8.853-100.511,43.9-138.969,181.54,0,0-64.444,208.368,94.328,261.328a188.071,188.071,0,0,0,118.842,0C474.193,420.709,409.749,212.342,409.749,212.342Z" style="fill:url(#linear-gradient)" fill=""/>
    <path xmlns="http://www.w3.org/2000/svg" d="M188.517,128.431c-6.426,6.474-13.336,17.607-20.092,36.094a41.342,41.342,0,0,0-2.621,14.512c.081,9.172,3.418,20.753,20.629,17.305,0,0,53.291-9.068,35.821-60.055C217.372,122.041,199.126,117.744,188.517,128.431Z" style="fill:#fff" fill="#ffffff" data-original="#ffffff"/>
    <path xmlns="http://www.w3.org/2000/svg" d="M184.487,229.238c-5.946.888-13.932,2.65-20.7,6.114A20.074,20.074,0,0,0,152.815,250.7c-.021.178-.039.357-.055.537a13.674,13.674,0,0,0,20.017,13.258c9.05-4.7,21.664-13.236,22.95-24.7A9.775,9.775,0,0,0,184.487,229.238Z" style="fill:#fff" fill="#ffffff" data-original="#ffffff"/>
  </g>
  <g transform="matrix(0.084579, 0, 0, 0.084579, 440.947174, 30.859486)" style="">
    <defs xmlns="http://www.w3.org/2000/svg">
      <linearGradient id="gradient-1" x1="333.464" y1="429.688" x2="188.194" y2="164.327" gradientUnits="userSpaceOnUse">
        <stop stop-opacity="1" stop-color="#f2ea76" offset="0"/>
        <stop stop-opacity="1" stop-color="#f2a127" offset="0.995"/>
      </linearGradient>
    </defs>
    <title xmlns="http://www.w3.org/2000/svg">fresh egg</title>
    <path xmlns="http://www.w3.org/2000/svg" d="M409.749,212.342C371.291,74.7,301.225,39.655,270.78,30.8a52.916,52.916,0,0,0-29.56,0c-30.445,8.853-100.511,43.9-138.969,181.54,0,0-64.444,208.368,94.328,261.328a188.071,188.071,0,0,0,118.842,0C474.193,420.709,409.749,212.342,409.749,212.342Z" style="fill: url(#gradient-1);" fill=""/>
    <path xmlns="http://www.w3.org/2000/svg" d="M188.517,128.431c-6.426,6.474-13.336,17.607-20.092,36.094a41.342,41.342,0,0,0-2.621,14.512c.081,9.172,3.418,20.753,20.629,17.305,0,0,53.291-9.068,35.821-60.055C217.372,122.041,199.126,117.744,188.517,128.431Z" style="fill:#fff" fill="#ffffff" data-original="#ffffff"/>
    <path xmlns="http://www.w3.org/2000/svg" d="M184.487,229.238c-5.946.888-13.932,2.65-20.7,6.114A20.074,20.074,0,0,0,152.815,250.7c-.021.178-.039.357-.055.537a13.674,13.674,0,0,0,20.017,13.258c9.05-4.7,21.664-13.236,22.95-24.7A9.775,9.775,0,0,0,184.487,229.238Z" style="fill:#fff" fill="#ffffff" data-original="#ffffff"/>
  </g>
  <g transform="matrix(0.141684, 0, 0, 0.141684, 935.394104, 46.134712)" style="">
    <defs xmlns="http://www.w3.org/2000/svg">
      <linearGradient id="gradient-2" x1="333.464" y1="429.688" x2="188.194" y2="164.327" gradientUnits="userSpaceOnUse">
        <stop stop-opacity="1" stop-color="#f2ea76" offset="0"/>
        <stop stop-opacity="1" stop-color="#f2a127" offset="0.995"/>
      </linearGradient>
    </defs>
    <title xmlns="http://www.w3.org/2000/svg">fresh egg</title>
    <path xmlns="http://www.w3.org/2000/svg" d="M409.749,212.342C371.291,74.7,301.225,39.655,270.78,30.8a52.916,52.916,0,0,0-29.56,0c-30.445,8.853-100.511,43.9-138.969,181.54,0,0-64.444,208.368,94.328,261.328a188.071,188.071,0,0,0,118.842,0C474.193,420.709,409.749,212.342,409.749,212.342Z" style="fill: url(#gradient-2);" fill=""/>
    <path xmlns="http://www.w3.org/2000/svg" d="M188.517,128.431c-6.426,6.474-13.336,17.607-20.092,36.094a41.342,41.342,0,0,0-2.621,14.512c.081,9.172,3.418,20.753,20.629,17.305,0,0,53.291-9.068,35.821-60.055C217.372,122.041,199.126,117.744,188.517,128.431Z" style="fill:#fff" fill="#ffffff" data-original="#ffffff"/>
    <path xmlns="http://www.w3.org/2000/svg" d="M184.487,229.238c-5.946.888-13.932,2.65-20.7,6.114A20.074,20.074,0,0,0,152.815,250.7c-.021.178-.039.357-.055.537a13.674,13.674,0,0,0,20.017,13.258c9.05-4.7,21.664-13.236,22.95-24.7A9.775,9.775,0,0,0,184.487,229.238Z" style="fill:#fff" fill="#ffffff" data-original="#ffffff"/>
  </g>
  <g transform="matrix(0.072465, 0, 0, 0.072465, 1023.391846, 39.073994)" style="">
    <defs xmlns="http://www.w3.org/2000/svg">
      <linearGradient id="gradient-3" x1="333.464" y1="429.688" x2="188.194" y2="164.327" gradientUnits="userSpaceOnUse">
        <stop stop-opacity="1" stop-color="#f2ea76" offset="0"/>
        <stop stop-opacity="1" stop-color="#f2a127" offset="0.995"/>
      </linearGradient>
    </defs>
    <title xmlns="http://www.w3.org/2000/svg">fresh egg</title>
    <path xmlns="http://www.w3.org/2000/svg" d="M409.749,212.342C371.291,74.7,301.225,39.655,270.78,30.8a52.916,52.916,0,0,0-29.56,0c-30.445,8.853-100.511,43.9-138.969,181.54,0,0-64.444,208.368,94.328,261.328a188.071,188.071,0,0,0,118.842,0C474.193,420.709,409.749,212.342,409.749,212.342Z" style="fill: url(#gradient-3);" fill=""/>
    <path xmlns="http://www.w3.org/2000/svg" d="M188.517,128.431c-6.426,6.474-13.336,17.607-20.092,36.094a41.342,41.342,0,0,0-2.621,14.512c.081,9.172,3.418,20.753,20.629,17.305,0,0,53.291-9.068,35.821-60.055C217.372,122.041,199.126,117.744,188.517,128.431Z" style="fill:#fff" fill="#ffffff" data-original="#ffffff"/>
    <path xmlns="http://www.w3.org/2000/svg" d="M184.487,229.238c-5.946.888-13.932,2.65-20.7,6.114A20.074,20.074,0,0,0,152.815,250.7c-.021.178-.039.357-.055.537a13.674,13.674,0,0,0,20.017,13.258c9.05-4.7,21.664-13.236,22.95-24.7A9.775,9.775,0,0,0,184.487,229.238Z" style="fill:#fff" fill="#ffffff" data-original="#ffffff"/>
  </g>
  <g transform="matrix(0.169372, 0, 0, 0.169372, 1055.644409, 66.974182)" style="">
    <defs xmlns="http://www.w3.org/2000/svg">
      <linearGradient id="gradient-4" x1="333.464" y1="429.688" x2="188.194" y2="164.327" gradientUnits="userSpaceOnUse">
        <stop stop-opacity="1" stop-color="#f2ea76" offset="0"/>
        <stop stop-opacity="1" stop-color="#f2a127" offset="0.995"/>
      </linearGradient>
    </defs>
    <title xmlns="http://www.w3.org/2000/svg">fresh egg</title>
    <path xmlns="http://www.w3.org/2000/svg" d="M409.749,212.342C371.291,74.7,301.225,39.655,270.78,30.8a52.916,52.916,0,0,0-29.56,0c-30.445,8.853-100.511,43.9-138.969,181.54,0,0-64.444,208.368,94.328,261.328a188.071,188.071,0,0,0,118.842,0C474.193,420.709,409.749,212.342,409.749,212.342Z" style="fill: url(#gradient-4);" fill=""/>
    <path xmlns="http://www.w3.org/2000/svg" d="M188.517,128.431c-6.426,6.474-13.336,17.607-20.092,36.094a41.342,41.342,0,0,0-2.621,14.512c.081,9.172,3.418,20.753,20.629,17.305,0,0,53.291-9.068,35.821-60.055C217.372,122.041,199.126,117.744,188.517,128.431Z" style="fill:#fff" fill="#ffffff" data-original="#ffffff"/>
    <path xmlns="http://www.w3.org/2000/svg" d="M184.487,229.238c-5.946.888-13.932,2.65-20.7,6.114A20.074,20.074,0,0,0,152.815,250.7c-.021.178-.039.357-.055.537a13.674,13.674,0,0,0,20.017,13.258c9.05-4.7,21.664-13.236,22.95-24.7A9.775,9.775,0,0,0,184.487,229.238Z" style="fill:#fff" fill="#ffffff" data-original="#ffffff"/>
  </g>
</svg>